<svg id="レイヤー_1" data-name="レイヤー 1" xmlns="http://www.w3.org/2000/svg" viewBox="0 0 989.24 339.29"><defs><style>.cls-1{fill:#3d2f4f;stroke:#3d2f4f;stroke-miterlimit:10;stroke-width:2px;}</style></defs><title>aslib_test2_2</title><path class="cls-1" d="M426.32,274.94l-9.75,38.24H373.44l57.75-176.72h43.86L532.8,313.18H488.7L479,274.94Zm26.56-102.89h-.49l-18.27,71.66h37Z" transform="translate(-56.99 -73)"/><path class="cls-1" d="M651,218.77a140.76,140.76,0,0,0-42.4-6.53c-13.4,0-18,3.14-18,9.68,0,6.05,4.87,10.41,14.62,12.1,18.52,3.39,31.43,8,38.75,14.53,7.55,6.53,11.2,16.22,11.2,28.81,0,24.2-18.52,38.24-53.36,38.24a164,164,0,0,1-49.46-7.26V278.81a118.69,118.69,0,0,0,44.59,8.47c11.94,0,18-3.39,18-10.41,0-6.53-3.66-9.68-15.6-12.1-35.08-6.78-49-19.61-49-41.88,0-24,18-38,54.33-38a202.9,202.9,0,0,1,46.3,5.33Z" transform="translate(-56.99 -73)"/><path class="cls-1" d="M686.07,313.18V136.46h42.64V279.05H804v34.13Z" transform="translate(-56.99 -73)"/><path class="cls-1" d="M880,131.62v31.47H838.6V131.62Zm0,55.68V313.18H838.6V187.3Z" transform="translate(-56.99 -73)"/><path class="cls-1" d="M919.5,313.18V131.62h39.23v68.27h.49c11-9.93,23.15-15,36.55-15,30.21,0,49.46,23.48,49.46,65.36,0,20.58-4.63,36.56-13.89,48.18-9.26,11.37-21.2,17.18-35.57,17.18-15.35,0-28.27-6.05-38.75-18.39h-.48l-.49,16Zm62.87-99.25a24.64,24.64,0,0,0-17.06,6.54c-4.87,4.35-7.31,9.2-7.31,14.76v30c0,5.57,2.44,10.41,7.31,14.77a24.63,24.63,0,0,0,17.06,6.53c14.86,0,24.36-11.86,24.36-36.31C1006.73,226,998.69,213.93,982.37,213.93Z" transform="translate(-56.99 -73)"/><path class="cls-1" d="M575.68,409.41,565.2,358.33h14.39l5.24,38.31H585l5.69-38.31h16.53l5.68,38.31h.18l5.24-38.31h14l-10.48,51.08H604.83l-6-37.33h-.17l-6,37.33Z" transform="translate(-56.99 -73)"/><path class="cls-1" d="M658.76,335.73V348.5H643.65V335.73Zm0,22.6v51.08H643.65V358.33Z" transform="translate(-56.99 -73)"/><path class="cls-1" d="M679.81,341.63h14.4v18.66h14.48v11.1H694.21v17.68c0,4.13.35,6.78,1,7.86s2.22,1.67,4.62,1.67a23.69,23.69,0,0,0,7.91-1.37v11.88a46.12,46.12,0,0,1-11.46,1.28c-6,0-10.31-1.38-12.8-4.22s-3.64-8.06-3.64-15.43V371.39h-9.33v-11.1h9.33Z" transform="translate(-56.99 -73)"/><path class="cls-1" d="M720.86,409.41V335.73h14.39v28h.18c4.27-4.23,8.71-6.39,13.42-6.39,5.42,0,9.33,1.77,11.73,5.21s3.55,9.53,3.55,18.37v28.49h-14V382.88c0-5.2-.44-8.74-1.42-10.41s-2.58-2.55-5.15-2.55c-2,0-3.91,1-5.69,2.94a9,9,0,0,0-2.58,6.09v30.46Z" transform="translate(-56.99 -73)"/><path class="cls-1" d="M835.12,393.89l-3.56,15.52H815.84l21-71.71h16l21.05,71.71H857.86l-3.55-15.52Zm9.68-41.75h-.18L838,381.21h13.5Z" transform="translate(-56.99 -73)"/><path class="cls-1" d="M917,371.1a46.59,46.59,0,0,0-15.46-2.66c-4.89,0-6.58,1.28-6.58,3.93,0,2.46,1.78,4.23,5.33,4.91,6.75,1.38,11.46,3.25,14.13,5.9s4.09,6.58,4.09,11.69c0,9.82-6.76,15.52-19.46,15.52a54.09,54.09,0,0,1-18-2.95v-12a39.52,39.52,0,0,0,16.26,3.44c4.35,0,6.58-1.38,6.58-4.23,0-2.65-1.34-3.93-5.69-4.91-12.8-2.75-17.86-8-17.86-17,0-9.73,6.58-15.43,19.81-15.43A67.07,67.07,0,0,1,917,359.5Z" transform="translate(-56.99 -73)"/><path class="cls-1" d="M948.67,357.34a60.12,60.12,0,0,1,14.66,1.77v12.18a41.24,41.24,0,0,0-12.44-2.06c-6.76,0-9.95,4.42-9.95,14.64,0,10.51,3.37,14.63,10.84,14.63A36.5,36.5,0,0,0,964,396.34v12.09a57.4,57.4,0,0,1-14.49,2c-15.28,0-23.72-8.94-23.72-26.52C925.83,366.67,934,357.34,948.67,357.34Z" transform="translate(-56.99 -73)"/><path class="cls-1" d="M992.64,335.73v73.68h-15.1V335.73Z" transform="translate(-56.99 -73)"/><path class="cls-1" d="M1023.92,335.73v73.68h-15.11V335.73Z" transform="translate(-56.99 -73)"/><path class="cls-1" d="M59.67,200c5.52,2.46,13.66,7.2,18,16,3.87,7.83,3.44,16.19-2,38-6.2,24.87-9.55,29.74-12,41a103.65,103.65,0,0,0,4,56.06c16.94,43.89,85.8,60,130.16,60.08,56.59.07,133.8-25.76,150.18-80.1,5.32-17.66,2.59-32.95-1-53.06C342.62,253.54,334.77,240.31,301,162c-5.91-13.69-13.51-32-7-50.06a56.09,56.09,0,0,1,14.38-21.26c11.17-9.6,23-10.31,22.67-12.79-.34-2.68-14.68-6.06-29-2-21.72,6.14-36.27,27.41-42,46.06A53.33,53.33,0,0,0,258,130c-3.83,25.92,4,47.2,6.9,55,11.62,31.15,23.06,61.8,12,91.11-11.71,31.07-45.81,53-81.1,54.07-35.75,1.12-74.84-19-83.1-47.06-6.42-21.79,9.4-36.95-3-61.07-2.19-4.26-9.38-18.25-25-23C73.74,195.68,64,198.48,59.67,200Z" transform="translate(-56.99 -73)"/><circle class="cls-1" cx="138.85" cy="168.08" r="38.05"/></svg>
